<svg width="60" height="60" viewBox="0 0 60 60" fill="none" xmlns="http://www.w3.org/2000/svg">
<path d="M30 3.33331V5.99998M30 54V56.6666M56.6667 30H54M6.00004 30H3.33337M48.8534 11.1466L47.808 12.1946M12.192 47.808L11.144 48.856M48.8534 48.8533L47.808 47.8053M12.192 12.192L11.144 11.144M14.9094 24.6666C13.7008 28.0882 13.6911 31.819 14.882 35.2467C16.0729 38.6745 18.3936 41.5956 21.4633 43.5307C24.533 45.4659 28.1693 46.3001 31.7755 45.8965C35.3817 45.4928 38.7436 43.8754 41.3095 41.3095C43.8754 38.7436 45.4929 35.3816 45.8965 31.7754C46.3002 28.1692 45.4659 24.5329 43.5308 21.4632C41.5956 18.3935 38.6745 16.0728 35.2468 14.8819C31.819 13.691 28.0883 13.7007 24.6667 14.9093"  stroke-width="6" stroke-linecap="round"/>
</svg>
