<svg width="60" height="44" viewBox="0 0 60 44"  xmlns="http://www.w3.org/2000/svg">
<path d="M15.3333 43.3334C11.2888 43.3334 7.83374 41.9334 4.96796 39.1334C2.10218 36.3334 0.668404 32.9111 0.666626 28.8667C0.666626 25.4 1.71107 22.3111 3.79996 19.6C5.88885 16.8889 8.62218 15.1556 12 14.4C13.1111 10.3111 15.3333 7.00002 18.6666 4.46669C22 1.93335 25.7777 0.666687 30 0.666687C35.2 0.666687 39.6115 2.47824 43.2346 6.10135C46.8577 9.72447 48.6684 14.1351 48.6666 19.3334C51.7333 19.6889 54.2782 21.0116 56.3013 23.3014C58.3244 25.5911 59.3351 28.2685 59.3333 31.3334C59.3333 34.6667 58.1671 37.5005 55.8346 39.8347C53.5022 42.1689 50.6684 43.3351 47.3333 43.3334H15.3333ZM15.3333 38H47.3333C49.2 38 50.7777 37.3556 52.0666 36.0667C53.3555 34.7778 54 33.2 54 31.3334C54 29.4667 53.3555 27.8889 52.0666 26.6C50.7777 25.3111 49.2 24.6667 47.3333 24.6667H43.3333V19.3334C43.3333 15.6445 42.0328 12.4996 39.432 9.89869C36.8311 7.2978 33.6871 5.99824 30 6.00002C26.3128 6.0018 23.1688 7.30224 20.568 9.90135C17.9671 12.5005 16.6666 15.6445 16.6666 19.3334H15.3333C12.7555 19.3334 10.5555 20.2445 8.73329 22.0667C6.91107 23.8889 5.99996 26.0889 5.99996 28.6667C5.99996 31.2445 6.91107 33.4445 8.73329 35.2667C10.5555 37.0889 12.7555 38 15.3333 38Z" />
</svg>
