<svg width="29" height="40" viewBox="0 0 29 40"  xmlns="http://www.w3.org/2000/svg">
<path d="M14.5 0L12.6875 2.04131C12.6875 2.04131 9.59417 5.56501 6.47667 10.1337C3.35917 14.7023 0 20.1701 0 25.4192C0 29.2863 1.52767 32.995 4.24695 35.7294C6.96623 38.4638 10.6544 40 14.5 40C18.3456 40 22.0338 38.4638 24.7531 35.7294C27.4723 32.995 29 29.2863 29 25.4192C29 20.1701 25.6408 14.7023 22.5233 10.1337C19.4058 5.56501 16.3125 2.04131 16.3125 2.04131L14.5 0ZM14.5 5C15.5633 6.26367 17.47 9.03524 19.5 12C22.4242 16.277 26 22.6002 26 25.4192C26 30.8141 19.865 37 14.5 37C9.135 37 3.5 31.3949 3.5 26C3.5 23.181 5.57583 17.277 8.5 13C10.53 10.0352 13.4367 6.26367 14.5 5Z" />
</svg>
