<svg width="70" height="67" viewBox="0 0 70 67"  xmlns="http://www.w3.org/2000/svg">
<path fill-rule="evenodd" clip-rule="evenodd" d="M33.2499 2.69354e-07C27.2668 -0.000499356 21.5244 2.35597 17.2663 6.55904C13.0082 10.7621 10.5772 16.4734 10.4999 22.456C7.71923 23.6697 5.30184 25.5854 3.48497 28.0153C1.6681 30.4451 0.514173 33.3056 0.136418 36.316C0.0676035 36.7775 0.0917594 37.2481 0.207466 37.7001C0.323173 38.1521 0.528094 38.5765 0.810178 38.9481C1.09226 39.3198 1.44582 39.6313 1.85005 39.8644C2.25428 40.0974 2.70103 40.2473 3.16402 40.3052C3.62702 40.363 4.09691 40.3277 4.54607 40.2014C4.99523 40.075 5.41458 39.8601 5.77948 39.5693C6.14437 39.2785 6.44744 38.9177 6.67085 38.508C6.89426 38.0984 7.03352 37.6482 7.08042 37.184C7.3455 35.0856 8.23815 33.1161 9.64145 31.5336C11.0448 29.9511 12.8933 28.8292 14.9449 28.315C15.7728 28.1063 16.4972 27.605 16.9842 26.9037C17.4712 26.2025 17.688 25.3486 17.5944 24.5C17.141 20.5501 18.1983 16.5748 20.5541 13.372C22.9098 10.1691 26.3897 7.97576 30.2954 7.23201C34.2011 6.48826 38.2436 7.24916 41.6116 9.36203C44.9796 11.4749 47.4239 14.7834 48.4539 18.6235C48.8179 19.9605 49.9309 20.9615 51.2924 21.1855C54.803 21.768 57.96 23.6655 60.1217 26.4923C62.2834 29.319 63.2875 32.8629 62.9299 36.4035C62.8779 36.8641 62.918 37.3304 63.0477 37.7754C63.1774 38.2204 63.3942 38.6352 63.6855 38.9957C63.9769 39.3562 64.3369 39.6553 64.7447 39.8756C65.1526 40.0958 65.6001 40.2329 66.0613 40.2787C66.5226 40.3246 66.9883 40.2785 67.4315 40.1429C67.8748 40.0073 68.2867 39.7851 68.6433 39.489C69 39.193 69.2943 38.829 69.5091 38.4183C69.724 38.0076 69.8551 37.5583 69.8949 37.0965C70.3914 32.1575 69.1223 27.2024 66.3128 23.1102C63.5032 19.0179 59.3349 16.0532 54.5474 14.742C52.9183 10.4101 50.0069 6.67817 46.2015 4.04413C42.3962 1.41009 37.878 -0.000711718 33.2499 2.69354e-07ZM3.49992 49C3.49992 48.0717 3.86867 47.1815 4.52504 46.5251C5.18142 45.8688 6.07166 45.5 6.99992 45.5H62.9999C63.9282 45.5 64.8184 45.8688 65.4748 46.5251C66.1312 47.1815 66.4999 48.0717 66.4999 49C66.4999 49.9283 66.1312 50.8185 65.4748 51.4749C64.8184 52.1313 63.9282 52.5 62.9999 52.5H6.99992C6.07166 52.5 5.18142 52.1313 4.52504 51.4749C3.86867 50.8185 3.49992 49.9283 3.49992 49ZM17.4999 63C17.4999 62.0717 17.8687 61.1815 18.525 60.5251C19.1814 59.8687 20.0717 59.5 20.9999 59.5H52.4999C53.4282 59.5 54.3184 59.8687 54.9748 60.5251C55.6312 61.1815 55.9999 62.0717 55.9999 63C55.9999 63.9283 55.6312 64.8185 54.9748 65.4749C54.3184 66.1313 53.4282 66.5 52.4999 66.5H20.9999C20.0717 66.5 19.1814 66.1313 18.525 65.4749C17.8687 64.8185 17.4999 63.9283 17.4999 63Z" />
</svg>
