<svg width="32" height="32" viewBox="0 0 32 32" fill="none" xmlns="http://www.w3.org/2000/svg">
<path d="M29.7674 16C29.7674 19.6514 28.3169 23.1532 25.7351 25.7351C23.1532 28.3169 19.6514 29.7674 16 29.7674V32C24.8365 32 32 24.8365 32 16H29.7674ZM16 29.7674C12.3486 29.7674 8.84684 28.3169 6.26495 25.7351C3.68305 23.1532 2.23256 19.6514 2.23256 16H0C0 24.8365 7.16354 32 16 32V29.7674ZM2.23256 16C2.23256 12.3486 3.68305 8.84684 6.26495 6.26495C8.84684 3.68305 12.3486 2.23256 16 2.23256V0C7.16354 0 0 7.16354 0 16H2.23256ZM21.2093 19.3488C18.9395 19.3488 16.7627 18.4472 15.1578 16.8422C13.5528 15.2373 12.6512 13.0605 12.6512 10.7907H10.4186C10.4186 13.6526 11.5555 16.3972 13.5791 18.4209C15.6028 20.4445 18.3474 21.5814 21.2093 21.5814V19.3488ZM28.5395 15.2097C27.778 16.4728 26.7029 17.5176 25.4185 18.2428C24.1342 18.9681 22.6842 19.349 21.2093 19.3488V21.5814C23.0689 21.5819 24.897 21.1019 26.5164 20.1879C28.1358 19.2739 29.4915 17.9569 30.4521 16.3647L28.5395 15.2097ZM12.6512 10.7907C12.651 9.31576 13.0319 7.8658 13.7572 6.58147C14.4824 5.29714 15.5272 4.22205 16.7903 3.46047L15.6353 1.5494C14.0433 2.50982 12.7265 3.86531 11.8124 5.48444C10.8984 7.10357 10.4183 8.9314 10.4186 10.7907H12.6512ZM16 2.23256C15.9252 2.23112 15.8514 2.21486 15.783 2.18471C15.7145 2.15456 15.6527 2.11113 15.6011 2.05693C15.5384 1.9939 15.4959 1.91357 15.4791 1.82623C15.4731 1.78009 15.4761 1.64614 15.6353 1.5494L16.7903 3.46047C17.539 3.008 17.7801 2.17898 17.6923 1.52707C17.6 0.84986 17.0672 0 16 0V2.23256ZM30.4521 16.3647C30.3539 16.5239 30.2199 16.5269 30.1738 16.5209C30.0864 16.5041 30.0061 16.4616 29.9431 16.3989C29.8889 16.3473 29.8454 16.2855 29.8153 16.217C29.7851 16.1486 29.7689 16.0748 29.7674 16H32C32 14.9328 31.1501 14.4 30.4729 14.3077C29.821 14.2199 28.992 14.461 28.5395 15.2097L30.4521 16.3647Z" fill="black"/>
</svg>
