<svg width="45" height="32" viewBox="0 0 45 32" fill="none" xmlns="http://www.w3.org/2000/svg">
<path d="M42.3007 27.8086C43.1151 24.7712 43.2197 21.5871 42.6065 18.5028C41.9934 15.4185 40.6788 12.5165 38.7646 10.0216C36.8504 7.52656 34.3879 5.5054 31.5676 4.11443C28.7472 2.72347 25.6447 2 22.5 2C19.3553 2 16.2528 2.72347 13.4324 4.11443C10.6121 5.5054 8.14956 7.52656 6.23537 10.0216C4.32118 12.5165 3.00664 15.4185 2.39347 18.5028C1.78031 21.5871 1.88494 24.7712 2.69928 27.8086"  stroke-width="3" stroke-linecap="round"/>
<path d="M24.245 23.8271C25.3542 25.4443 24.573 27.9089 22.5002 29.3325C20.4274 30.7584 17.8467 30.6035 16.7374 28.9886C15.553 27.2666 11.4666 17.5837 8.98613 11.5932C8.51919 10.4657 9.89725 9.51811 10.7856 10.3586C15.4869 14.8231 23.0628 22.1051 24.245 23.8271Z"  stroke-width="3"/>
<path d="M22.4999 2.0014V6.55696M8.00416 8.00563L11.2249 11.2264M36.9957 8.00563L33.7749 11.2264M42.3007 27.8086L37.9023 26.6287M2.69922 27.8086L7.09761 26.6287"  stroke-width="3" stroke-linecap="round"/>
</svg>
