<svg width="54" height="54" viewBox="0 0 54 54"  xmlns="http://www.w3.org/2000/svg">
<path d="M24.3333 0.333313C22.14 0.333304 19.9702 0.78422 17.9585 1.65806C15.9468 2.53189 14.1363 3.80999 12.6394 5.41297C11.1424 7.01595 9.99101 8.90958 9.25667 10.9763C8.52233 13.0429 8.22073 15.2385 8.37061 17.4266C6.30888 18.3181 4.50579 19.7161 3.12871 21.4906C1.75163 23.2652 0.845185 25.3589 0.493522 27.5774C0.141858 29.7959 0.356372 32.0673 1.11715 34.1808C1.87793 36.2943 3.16031 38.1813 4.84527 39.6666C5.37571 40.1348 6.0704 40.3731 6.77654 40.3291C7.48268 40.2851 8.14241 39.9624 8.61061 39.432C9.0788 38.9015 9.31711 38.2068 9.2731 37.5007C9.22909 36.7946 8.90637 36.1348 8.37594 35.6666C7.27119 34.691 6.45723 33.4294 6.02375 32.0207C5.59027 30.612 5.55409 29.111 5.91921 27.6831C6.28432 26.2551 7.03656 24.9557 8.09302 23.928C9.14948 22.9003 10.4691 22.1842 11.9066 21.8586C12.5958 21.7039 13.1955 21.282 13.574 20.6855C13.9524 20.0891 14.0788 19.3668 13.9253 18.6773C13.6313 17.3075 13.61 15.8933 13.8626 14.5153C14.1151 13.1372 14.6367 11.8225 15.3974 10.646C16.1581 9.46957 17.143 8.45446 18.296 7.65867C19.449 6.86287 20.7475 6.30196 22.1173 6.00798C23.487 5.71399 24.9013 5.69268 26.2793 5.94527C27.6573 6.19785 28.9721 6.71938 30.1486 7.48007C31.325 8.24077 32.3401 9.22574 33.1359 10.3787C33.9317 11.5317 34.4926 12.8302 34.7866 14.2C34.9112 14.8109 35.2459 15.3589 35.7326 15.7486C36.2193 16.1384 36.8272 16.3453 37.4506 16.3333H37.6666C39.9053 16.3333 42.0873 17.0377 43.9035 18.3467C45.7197 19.6557 47.0779 21.503 47.7859 23.6269C48.4938 25.7507 48.5156 28.0435 47.8481 30.1804C47.1806 32.3173 45.8576 34.1901 44.0666 35.5333C43.7864 35.7436 43.5505 36.007 43.3721 36.3085C43.1938 36.61 43.0765 36.9437 43.0271 37.2905C42.9777 37.6373 42.9971 37.9904 43.0842 38.3297C43.1713 38.669 43.3243 38.9878 43.5346 39.268C43.7449 39.5481 44.0083 39.7841 44.3098 39.9625C44.6113 40.1408 44.945 40.2581 45.2918 40.3075C45.6385 40.3569 45.9917 40.3375 46.331 40.2504C46.6703 40.1633 46.9891 40.0103 47.2693 39.8C49.8331 37.8766 51.7603 35.2276 52.8009 32.1961C53.8416 29.1647 53.9478 25.8905 53.1059 22.798C52.2639 19.7055 50.5126 16.9371 48.0788 14.8515C45.645 12.766 42.641 11.4595 39.4559 11.1013C38.3679 7.95681 36.3265 5.22977 33.616 3.29977C30.9055 1.36977 27.6607 0.33284 24.3333 0.333313ZM29.5306 35.8426C29.6413 35.5103 29.6854 35.1594 29.6604 34.8101C29.6355 34.4607 29.542 34.1196 29.3852 33.8064C29.2285 33.4931 29.0116 33.2138 28.7469 32.9844C28.4822 32.755 28.1749 32.58 27.8426 32.4693C27.5103 32.3587 27.1594 32.3145 26.81 32.3395C26.4606 32.3644 26.1196 32.4579 25.8063 32.6147C25.1737 32.9312 24.6928 33.4861 24.4693 34.1573L19.1359 50.1573C19.0253 50.4896 18.9812 50.8405 19.0061 51.1899C19.031 51.5393 19.1246 51.8803 19.2813 52.1936C19.5979 52.8262 20.1528 53.3072 20.8239 53.5306C21.4951 53.7541 22.2276 53.7018 22.8602 53.3853C23.4928 53.0687 23.9738 52.5138 24.1973 51.8426L29.5306 35.8426ZM38.5093 29.8026C38.8416 29.9132 39.149 30.0882 39.4137 30.3176C39.6784 30.547 39.8954 30.8263 40.0521 31.1396C40.2089 31.4529 40.3024 31.7939 40.3273 32.1434C40.3522 32.4928 40.308 32.8437 40.1973 33.176L34.8639 49.176C34.6404 49.8472 34.1595 50.4021 33.5269 50.7186C32.8942 51.0352 32.1618 51.0875 31.4906 50.864C30.8194 50.6405 30.2645 50.1595 29.948 49.5269C29.6314 48.8943 29.5791 48.1618 29.8026 47.4906L35.1359 31.4906C35.2465 31.1583 35.4215 30.8509 35.6509 30.5862C35.8803 30.3215 36.1596 30.1045 36.4729 29.9478C36.7862 29.791 37.1272 29.6975 37.4766 29.6726C37.8261 29.6477 38.1769 29.6919 38.5093 29.8026ZM20.1999 33.176C20.4234 32.5048 20.3711 31.7723 20.0546 31.1397C19.738 30.5071 19.1831 30.0261 18.5119 29.8026C17.8408 29.5792 17.1083 29.6314 16.4757 29.948C15.8431 30.2646 15.3621 30.8195 15.1386 31.4906L9.80527 47.4906C9.58178 48.1618 9.63407 48.8943 9.95063 49.5269C10.2672 50.1595 10.8221 50.6405 11.4933 50.864C12.1644 51.0875 12.8969 51.0352 13.5295 50.7186C14.1622 50.4021 14.6431 49.8472 14.8666 49.176L20.1999 33.176Z" />
</svg>
