<svg width="64" height="57" viewBox="0 0 64 57"  xmlns="http://www.w3.org/2000/svg">
<path d="M25.6133 37.0897H25.6509M48.1863 37.0897H48.2239M36.8998 42.6788H36.9374M25.6133 48.268H25.6509M48.1863 48.268H48.2239M36.8998 53.8571H36.9374M18.0889 14.8672C20.9029 15.2701 23.5095 16.5642 25.5192 18.5561M10.5646 39.5564C7.60854 38.1654 5.2814 35.734 4.03685 32.7362C2.79231 29.7383 2.71956 26.3889 3.83279 23.3408C4.94601 20.2927 7.16543 17.7645 10.0584 16.2489C12.9513 14.7333 16.3105 14.339 19.4809 15.143C21.0842 11.2676 23.9586 8.03994 27.6406 5.98052C31.3226 3.92109 35.5977 3.14991 39.7764 3.79132C43.9551 4.43274 47.7939 6.44938 50.6738 9.51603C53.5537 12.5827 55.3068 16.5206 55.6504 20.6948C57.2077 21.1215 58.6424 21.9034 59.8396 22.978C61.0369 24.0526 61.9634 25.39 62.5449 26.883C63.1263 28.3761 63.3467 29.9832 63.1882 31.5758C63.0297 33.1683 62.4968 34.7019 61.6322 36.0538"  stroke-width="6" stroke-linecap="round" stroke-linejoin="round"/>
</svg>
