<svg width="32" height="32" viewBox="0 0 32 32" fill="none" xmlns="http://www.w3.org/2000/svg">
<path d="M15.9991 27.2C16.4235 27.2 16.8305 27.3686 17.1305 27.6686C17.4306 27.9687 17.5992 28.3757 17.5992 28.8V30.4C17.5992 30.8243 17.4306 31.2313 17.1305 31.5314C16.8305 31.8314 16.4235 32 15.9991 32C15.5747 32 15.1678 31.8314 14.8677 31.5314C14.5676 31.2313 14.399 30.8243 14.399 30.4V28.8C14.399 28.3757 14.5676 27.9687 14.8677 27.6686C15.1678 27.3686 15.5747 27.2 15.9991 27.2ZM26.1821 23.92L27.3133 25.0512C27.6048 25.353 27.7661 25.7571 27.7624 26.1766C27.7588 26.5962 27.5905 26.9975 27.2938 27.2941C26.9972 27.5908 26.5959 27.759 26.1763 27.7627C25.7568 27.7663 25.3526 27.6051 25.0508 27.3136L23.9196 26.1824C23.6281 25.8806 23.4668 25.4765 23.4705 25.057C23.4741 24.6374 23.6424 24.2361 23.939 23.9395C24.2357 23.6428 24.637 23.4746 25.0566 23.4709C25.4761 23.4673 25.8803 23.6285 26.1821 23.92ZM5.81615 23.92C6.1041 23.633 6.49048 23.4664 6.89682 23.454C7.30317 23.4416 7.699 23.5843 8.00392 23.8532C8.30884 24.1221 8.49999 24.4969 8.53854 24.9016C8.57709 25.3062 8.46016 25.7104 8.21148 26.032L8.07868 26.1824L6.94741 27.3136C6.65946 27.6006 6.27308 27.7672 5.86674 27.7796C5.4604 27.792 5.06457 27.6493 4.75965 27.3804C4.45472 27.1115 4.26358 26.7367 4.22502 26.332C4.18647 25.9274 4.30341 25.5232 4.55208 25.2016L4.68489 25.0512L5.81615 23.92ZM15.9991 6.4C18.5453 6.4 20.9873 7.41143 22.7877 9.21178C24.5882 11.0121 25.5996 13.4539 25.5996 16C25.5996 18.5461 24.5882 20.9879 22.7877 22.7882C20.9873 24.5886 18.5453 25.6 15.9991 25.6C13.4529 25.6 11.011 24.5886 9.21051 22.7882C7.41006 20.9879 6.39858 18.5461 6.39858 16C6.39858 13.4539 7.41006 11.0121 9.21051 9.21178C11.011 7.41143 13.4529 6.4 15.9991 6.4ZM15.9991 9.6C14.3016 9.6 12.6737 10.2743 11.4734 11.4745C10.2731 12.6747 9.59876 14.3026 9.59876 16C9.59876 17.6974 10.2731 19.3253 11.4734 20.5255C12.6737 21.7257 14.3016 22.4 15.9991 22.4C17.6966 22.4 19.3245 21.7257 20.5248 20.5255C21.7251 19.3253 22.3995 17.6974 22.3995 16C22.3995 14.3026 21.7251 12.6747 20.5248 11.4745C19.3245 10.2743 17.6966 9.6 15.9991 9.6ZM3.1984 14.4C3.60623 14.4005 3.9985 14.5566 4.29505 14.8366C4.59161 15.1165 4.77007 15.4991 4.79397 15.9062C4.81787 16.3133 4.68541 16.7142 4.42365 17.0269C4.16189 17.3397 3.79059 17.5406 3.38562 17.5888L3.1984 17.6H1.59832C1.19049 17.5995 0.79822 17.4434 0.501666 17.1634C0.205112 16.8835 0.0266529 16.5009 0.00275221 16.0938C-0.0211485 15.6867 0.111313 15.2858 0.373072 14.9731C0.634831 14.6603 1.00613 14.4594 1.41111 14.4112L1.59832 14.4H3.1984ZM30.3999 14.4C30.8243 14.4 31.2313 14.5686 31.5313 14.8686C31.8314 15.1687 32 15.5757 32 16C32 16.4243 31.8314 16.8313 31.5313 17.1314C31.2313 17.4314 30.8243 17.6 30.3999 17.6H28.7998C28.3755 17.6 27.9685 17.4314 27.6684 17.1314C27.3683 16.8313 27.1997 16.4243 27.1997 16C27.1997 15.5757 27.3683 15.1687 27.6684 14.8686C27.9685 14.5686 28.3755 14.4 28.7998 14.4H30.3999ZM4.68489 4.6864C4.96041 4.41092 5.32699 4.24543 5.71585 4.22098C6.10472 4.19653 6.48914 4.3148 6.797 4.5536L6.94741 4.6864L8.07868 5.8176C8.36565 6.10553 8.53226 6.49189 8.54467 6.89821C8.55707 7.30453 8.41435 7.70034 8.14548 8.00525C7.87661 8.31015 7.50176 8.50129 7.09706 8.53984C6.69236 8.57839 6.28816 8.46146 5.96656 8.2128L5.81615 8.08L4.68489 6.9488C4.38492 6.64876 4.2164 6.24186 4.2164 5.8176C4.2164 5.39334 4.38492 4.98644 4.68489 4.6864ZM27.3133 4.6864C27.6133 4.98644 27.7818 5.39334 27.7818 5.8176C27.7818 6.24186 27.6133 6.64876 27.3133 6.9488L26.1821 8.08C26.0345 8.23282 25.8579 8.35471 25.6627 8.43856C25.4675 8.52242 25.2575 8.56656 25.0451 8.5684C24.8326 8.57025 24.6219 8.52976 24.4253 8.44932C24.2286 8.36887 24.05 8.25006 23.8997 8.09983C23.7495 7.9496 23.6307 7.77096 23.5502 7.57433C23.4698 7.37769 23.4293 7.167 23.4311 6.95456C23.433 6.74211 23.4771 6.53216 23.561 6.33695C23.6448 6.14175 23.7667 5.9652 23.9196 5.8176L25.0508 4.6864C25.3509 4.38645 25.7578 4.21794 26.1821 4.21794C26.6064 4.21794 27.0133 4.38645 27.3133 4.6864ZM15.9991 0C16.4235 0 16.8305 0.168571 17.1305 0.468629C17.4306 0.768687 17.5992 1.17565 17.5992 1.6V3.2C17.5992 3.62435 17.4306 4.03131 17.1305 4.33137C16.8305 4.63143 16.4235 4.8 15.9991 4.8C15.5747 4.8 15.1678 4.63143 14.8677 4.33137C14.5676 4.03131 14.399 3.62435 14.399 3.2V1.6C14.399 1.17565 14.5676 0.768687 14.8677 0.468629C15.1678 0.168571 15.5747 0 15.9991 0Z" fill="black"/>
</svg>
