<svg width="64" height="64" viewBox="0 0 64 64" fill="none" xmlns="http://www.w3.org/2000/svg">
<path d="M41.3333 46.6667C41.3333 45.441 41.0919 44.2273 40.6229 43.095C40.1538 41.9626 39.4663 40.9337 38.5997 40.067C37.733 39.2003 36.7041 38.5128 35.5717 38.0438C34.4393 37.5747 33.2257 37.3333 32 37.3333C30.7743 37.3333 29.5607 37.5747 28.4283 38.0438C27.2959 38.5128 26.267 39.2003 25.4003 40.067C24.5337 40.9337 23.8462 41.9626 23.3771 43.095C22.9081 44.2273 22.6667 45.441 22.6667 46.6667M31.7333 8V26.6667M31.7333 8L22.1333 17.6M31.7333 8L41.3333 17.6M15.728 30.3947L19.136 33.8027M8 46.4H12.8M50.6667 46.4H55.4667M44.3307 33.8027L47.7387 30.3947M56 56H8" stroke-width="4.9375" stroke-linecap="round" stroke-linejoin="round"/>
</svg>
