<svg width="20" height="20" viewBox="0 0 20 20"  xmlns="http://www.w3.org/2000/svg">
<path d="M7.17307 12.83C6.80162 12.4585 6.50698 12.0176 6.30595 11.5323C6.10493 11.0469 6.00146 10.5268 6.00146 10.0015C6.00146 9.47619 6.10493 8.95603 6.30595 8.47072C6.50698 7.9854 6.80162 7.54444 7.17307 7.17299C7.54451 6.80155 7.98548 6.5069 8.47079 6.30588C8.95611 6.10485 9.47627 6.00139 10.0016 6.00139C10.5269 6.00139 11.047 6.10485 11.5323 6.30588C12.0177 6.5069 12.4586 6.80155 12.8301 7.17299"  stroke-width="2" stroke-linecap="round" stroke-linejoin="round"/>
<path d="M9.294 10.707L9.468 10.954C10.4572 12.2915 11.863 13.2621 13.4641 13.7133C15.0653 14.1644 16.7711 14.0704 18.313 13.446C17.7455 14.8115 16.8504 16.0161 15.7066 16.9534C14.5629 17.8906 13.2058 18.5317 11.7555 18.8197C10.3051 19.1078 8.80606 19.0341 7.39095 18.6051C5.97584 18.1761 4.68824 17.405 3.642 16.36M1 10H2M10 1V2M3.6 3.6L4.3 4.3M1 19L19 1"  stroke-width="2" stroke-linecap="round" stroke-linejoin="round"/>
</svg>
