<svg width="54" height="54" viewBox="0 0 54 54"  xmlns="http://www.w3.org/2000/svg">
<path d="M24.3333 0.333313C22.1401 0.333304 19.9702 0.78422 17.9586 1.65806C15.9469 2.5319 14.1364 3.80999 12.6394 5.41297C11.1425 7.01595 9.99108 8.90958 9.25674 10.9763C8.5224 13.0429 8.2208 15.2385 8.37067 17.4266C5.81884 18.5293 3.67548 20.402 2.24036 22.7828C0.80524 25.1636 0.150146 27.9334 0.3667 30.7048C0.583255 33.4763 1.66063 36.1107 3.44813 38.2397C5.23564 40.3687 7.64387 41.8857 10.336 42.5786C10.679 42.6784 11.0385 42.7082 11.3933 42.6663C11.748 42.6245 12.0907 42.5117 12.4011 42.3349C12.7114 42.158 12.983 41.9206 13.1999 41.6367C13.4167 41.3529 13.5743 41.0283 13.6632 40.6824C13.7522 40.3364 13.7708 39.9762 13.7179 39.6229C13.6649 39.2696 13.5416 38.9306 13.3551 38.6259C13.1686 38.3213 12.9229 38.0572 12.6324 37.8493C12.3419 37.6415 12.0126 37.4941 11.664 37.416C9.92779 36.9649 8.39338 35.9438 7.30691 34.5164C6.22044 33.089 5.64488 31.338 5.67256 29.5443C5.70023 27.7507 6.32954 26.0183 7.45953 24.6251C8.58951 23.2319 10.1547 22.2586 11.904 21.8613C12.2458 21.785 12.5692 21.6421 12.8558 21.4408C13.1423 21.2394 13.3864 20.9836 13.5741 20.688C13.7618 20.3923 13.8895 20.0626 13.9497 19.7176C14.01 19.3726 14.0017 19.0191 13.9253 18.6773C13.3316 15.9109 13.8611 13.022 15.3974 10.646C16.9337 8.27007 19.351 6.60171 22.1173 6.00798C24.8837 5.41425 27.7727 5.94378 30.1486 7.48007C32.5246 9.01637 34.1929 11.4336 34.7867 14.2C34.9113 14.8109 35.246 15.3589 35.7327 15.7486C36.2194 16.1384 36.8273 16.3453 37.4507 16.3333H37.6667C40.1194 16.3306 42.4981 17.1732 44.4021 18.7192C46.3062 20.2652 47.6193 22.4202 48.1203 24.8212C48.6213 27.2222 48.2796 29.7225 47.1526 31.9009C46.0257 34.0794 44.1825 35.803 41.9333 36.7813C41.6019 36.9141 41.3004 37.1121 41.0469 37.3636C40.7934 37.6151 40.593 37.9149 40.4575 38.2453C40.3221 38.5757 40.2544 38.9299 40.2584 39.287C40.2625 39.6441 40.3382 39.9967 40.4811 40.3239C40.624 40.6512 40.8312 40.9464 41.0903 41.1921C41.3495 41.4377 41.6553 41.6288 41.9897 41.7541C42.3241 41.8793 42.6803 41.9361 43.0371 41.9211C43.3938 41.9061 43.744 41.8195 44.0667 41.6666C47.2948 40.2573 49.9678 37.8223 51.6712 34.7391C53.3745 31.656 54.013 28.0969 53.4877 24.6139C52.9623 21.1309 51.3025 17.9186 48.7655 15.475C46.2286 13.0314 42.9562 11.4931 39.456 11.0986C38.3675 7.95465 36.3259 5.22818 33.6155 3.29869C30.905 1.36919 27.6604 0.332648 24.3333 0.333313ZM29.384 30.8586C29.5535 30.5443 29.6582 30.1991 29.6917 29.8436C29.7253 29.488 29.6871 29.1294 29.5794 28.7889C29.4717 28.4484 29.2967 28.1329 29.0648 27.8613C28.8329 27.5898 28.5489 27.3675 28.2294 27.2078C27.91 27.0481 27.5618 26.9542 27.2053 26.9316C26.8489 26.909 26.4916 26.9583 26.1546 27.0764C25.8176 27.1946 25.5077 27.3792 25.2434 27.6194C24.9791 27.8596 24.7658 28.1504 24.616 28.4746L19.2827 39.1413C19.0796 39.5478 18.9837 39.9994 19.0041 40.4533C19.0246 40.9072 19.1607 41.3484 19.3995 41.7349C19.6383 42.1215 19.9719 42.4406 20.3687 42.662C20.7655 42.8834 21.2123 42.9997 21.6667 43H28.0187L24.616 49.808C24.4465 50.1223 24.3419 50.4675 24.3083 50.823C24.2747 51.1786 24.3129 51.5373 24.4206 51.8778C24.5283 52.2183 24.7033 52.5337 24.9352 52.8053C25.1671 53.0769 25.4512 53.2991 25.7706 53.4588C26.09 53.6185 26.4383 53.7125 26.7947 53.735C27.1511 53.7576 27.5084 53.7083 27.8454 53.5902C28.1824 53.472 28.4923 53.2874 28.7566 53.0472C29.0209 52.807 29.2342 52.5162 29.384 52.192L34.7173 41.5253C34.9204 41.1189 35.0163 40.6672 34.9959 40.2133C34.9754 39.7594 34.8393 39.3182 34.6005 38.9317C34.3617 38.5451 34.0281 38.226 33.6313 38.0046C33.2345 37.7832 32.7877 37.6669 32.3333 37.6666H25.9813L29.384 30.8586Z" />
</svg>
