<svg width="47" height="47" viewBox="0 0 47 47" fill="none" xmlns="http://www.w3.org/2000/svg">
<path d="M2 23.5H4.38889M23.5 2V4.38889M42.6111 23.5H45M23.5 42.6111V45M8.21111 8.21111L9.88333 9.88333M38.7889 8.21111L37.1167 9.88333M37.1167 37.1167L38.7889 38.7889M9.88333 37.1167L8.21111 38.7889M13.9444 23.5C13.9444 26.0343 14.9512 28.4648 16.7432 30.2568C18.5352 32.0488 20.9657 33.0556 23.5 33.0556C26.0343 33.0556 28.4648 32.0488 30.2568 30.2568C32.0488 28.4648 33.0556 26.0343 33.0556 23.5C33.0556 20.9657 32.0488 18.5352 30.2568 16.7432C28.4648 14.9512 26.0343 13.9444 23.5 13.9444C20.9657 13.9444 18.5352 14.9512 16.7432 16.7432C14.9512 18.5352 13.9444 20.9657 13.9444 23.5Z"  stroke-width="3" stroke-linecap="round" stroke-linejoin="round"/>
</svg>
