<svg width="37" height="25" viewBox="0 0 37 25"  xmlns="http://www.w3.org/2000/svg">
<path d="M18.3333 7.5C19.6594 7.5 20.9312 8.02678 21.8689 8.96447C22.8065 9.90215 23.3333 11.1739 23.3333 12.5C23.3333 13.8261 22.8065 15.0979 21.8689 16.0355C20.9312 16.9732 19.6594 17.5 18.3333 17.5C17.0072 17.5 15.7355 16.9732 14.7978 16.0355C13.8601 15.0979 13.3333 13.8261 13.3333 12.5C13.3333 11.1739 13.8601 9.90215 14.7978 8.96447C15.7355 8.02678 17.0072 7.5 18.3333 7.5ZM18.3333 0C26.6667 0 33.7833 5.18333 36.6667 12.5C33.7833 19.8167 26.6667 25 18.3333 25C10 25 2.88333 19.8167 0 12.5C2.88333 5.18333 10 0 18.3333 0ZM3 12.5C4.34709 15.2505 6.40138 18.3792 9 20C11.5986 21.6208 15.2707 22.5 18.3333 22.5C21.396 22.5 24.9014 21.6208 27.5 20C30.0986 18.3792 32.6529 15.2505 34 12.5C32.6529 9.74949 30.0986 7.12084 27.5 5.5C24.9014 3.87916 21.396 3 18.3333 3C15.2707 3 12.0986 3.87916 9.5 5.5C6.90138 7.12084 4.34709 9.74949 3 12.5Z" />
</svg>
