<svg width="44" height="40" viewBox="0 0 44 40" fill="none" xmlns="http://www.w3.org/2000/svg">
<path d="M2 22.5H35.5H35.9846C36.6571 22.5 37.3253 22.3916 37.9633 22.1789L38.1829 22.1057C39.3606 21.7131 40.3739 20.9392 41.0624 19.9063L41.2291 19.6564C41.7318 18.9024 42 18.0164 42 17.1102V17.1102C42 16.0679 41.6453 15.0566 40.9941 14.2427L40.6732 13.8416C40.2297 13.2871 39.6711 12.8356 39.0361 12.518V12.518C38.3547 12.1774 37.6034 12 36.8417 12H36.5919C35.8738 12 35.1656 12.1672 34.5234 12.4883V12.4883C33.2467 13.1266 32.3363 14.3186 32.0563 15.7183L32 16"  stroke-width="3" stroke-linecap="round" stroke-linejoin="round"/>
<path d="M13 12.5H22.9846C23.6571 12.5 24.3253 12.3916 24.9633 12.1789L25.1829 12.1057C26.3606 11.7131 27.3739 10.9392 28.0624 9.90633L28.2291 9.6564C28.7318 8.90237 29 8.01641 29 7.11018V7.11018C29 6.06786 28.6453 5.05658 27.9941 4.24266L27.6732 3.84156C27.2297 3.28713 26.6711 2.83556 26.0361 2.51803V2.51803C25.3547 2.17736 24.6034 2 23.8417 2H23.5919C22.8738 2 22.1656 2.16718 21.5234 2.48831V2.48831C20.2467 3.12664 19.3363 4.31864 19.0563 5.71827L19 6"  stroke-width="3" stroke-linecap="round" stroke-linejoin="round"/>
<path d="M16 28H25.9846C26.6571 28 27.3253 28.1084 27.9633 28.3211L28.1829 28.3943C29.3606 28.7869 30.3739 29.5608 31.0624 30.5937L31.2291 30.8436C31.7318 31.5976 32 32.4836 32 33.3898V33.3898C32 34.4321 31.6453 35.4434 30.9941 36.2573L30.6732 36.6584C30.2297 37.2129 29.6711 37.6644 29.0361 37.982V37.982C28.3547 38.3226 27.6034 38.5 26.8417 38.5H26.5919C25.8738 38.5 25.1656 38.3328 24.5234 38.0117V38.0117C23.2467 37.3734 22.3363 36.1814 22.0563 34.7817L22 34.5"  stroke-width="3" stroke-linecap="round" stroke-linejoin="round"/>
</svg>
